<svg xmlns="http://www.w3.org/2000/svg" width="512" height="512" viewBox="0 0 512 512">
  <defs>
    <linearGradient id="sky" x1="0" y1="0" x2="0" y2="1">
      <stop offset="0" stop-color="rgb(46, 61, 82)"/>
      <stop offset="1" stop-color="rgb(94, 128, 160)"/>
    </linearGradient>
    <linearGradient id="copper" x1="0" y1="0" x2="1" y2="1">
      <stop offset="0" stop-color="rgb(196, 120, 63)"/>
      <stop offset="1" stop-color="rgb(128, 72, 36)"/>
    </linearGradient>
    <radialGradient id="hub" cx="0.35" cy="0.35" r="1">
      <stop offset="0" stop-color="rgb(222, 178, 92)"/>
      <stop offset="1" stop-color="rgb(140, 104, 44)"/>
    </radialGradient>
    <linearGradient id="streak" x1="0" y1="0" x2="1" y2="0">
      <stop offset="0" stop-color="white" stop-opacity="0"/>
      <stop offset="1" stop-color="white" stop-opacity="0.9"/>
    </linearGradient>
  </defs>
  <rect width="512" height="512" rx="76" fill="url(#sky)"/>
  <!-- trailing vapor streaks -->
  <rect x="30" y="380" width="250" height="20" rx="10" fill="url(#streak)"/>
  <rect x="60" y="425" width="180" height="16" rx="8" fill="url(#streak)"/>
  <!-- blade-tip vapor ring -->
  <circle cx="256" cy="241" r="182"
          fill="none" stroke="white" stroke-width="22"
          stroke-opacity="0.92" stroke-linecap="round"
          stroke-dasharray="1500 90"/>
  <!-- propeller -->
    <polygon points="256.0,230.4 262.3,225.3 266.5,220.2 270.4,215.0 274.0,209.9 277.5,204.8 280.9,199.7 284.2,194.6 287.4,189.4 290.4,184.3 293.3,179.2 296.1,174.1 298.6,169.0 301.0,163.8 303.1,158.7 305.1,153.6 306.7,148.5 308.1,143.4 309.2,138.2 310.0,133.1 310.5,128.0 310.6,122.9 310.3,117.8 309.7,112.6 308.6,107.5 307.1,102.4 305.1,97.3 302.5,92.2 299.1,87.0 294.5,81.9 285.6,76.8 285.6,76.8 272.7,81.9 264.4,87.0 257.4,92.2 251.3,97.3 245.9,102.4 241.2,107.5 237.1,112.6 233.5,117.8 230.4,122.9 227.8,128.0 225.7,133.1 224.1,138.2 222.9,143.4 222.1,148.5 221.7,153.6 221.7,158.7 222.1,163.8 222.8,169.0 223.9,174.1 225.3,179.2 226.9,184.3 228.8,189.4 231.0,194.6 233.5,199.7 236.1,204.8 239.1,209.9 242.2,215.0 245.7,220.2 249.8,225.3 256.0,230.4" fill="url(#copper)" stroke="rgb(128, 72, 36)" stroke-width="6"/>
    <polygon points="247.1,245.8 239.6,242.9 233.0,241.8 226.7,241.0 220.4,240.4 214.2,239.9 208.1,239.6 202.0,239.3 196.0,239.1 190.0,239.0 184.1,239.0 178.3,239.2 172.6,239.6 167.0,240.1 161.5,240.8 156.1,241.7 150.8,242.8 145.7,244.2 140.7,245.8 135.9,247.6 131.2,249.8 126.7,252.3 122.4,255.0 118.3,258.1 114.4,261.6 110.7,265.5 107.3,269.8 104.2,274.6 101.4,280.1 99.3,286.6 99.3,297.0 99.3,297.0 110.2,305.5 118.8,310.2 126.7,313.7 134.2,316.4 141.3,318.5 148.1,320.0 154.6,321.0 160.8,321.6 166.8,321.7 172.5,321.4 178.0,320.6 183.3,319.5 188.3,318.0 193.1,316.1 197.8,313.8 202.2,311.3 206.4,308.4 210.5,305.2 214.4,301.7 218.2,298.0 221.8,294.0 225.2,289.8 228.6,285.3 231.8,280.6 234.9,275.8 237.9,270.7 240.7,265.4 243.4,259.8 245.8,253.7 247.1,245.8" fill="url(#copper)" stroke="rgb(128, 72, 36)" stroke-width="6"/>
    <polygon points="264.9,245.8 266.2,253.8 268.5,260.0 271.0,265.9 273.6,271.6 276.3,277.2 279.0,282.7 281.8,288.1 284.7,293.4 287.6,298.6 290.6,303.7 293.6,308.6 296.8,313.4 300.0,318.0 303.4,322.4 306.9,326.6 310.5,330.6 314.2,334.4 318.1,337.9 322.1,341.2 326.3,344.1 330.7,346.8 335.3,349.1 340.0,351.1 345.0,352.8 350.1,354.1 355.6,354.9 361.3,355.2 367.5,354.8 374.2,353.4 383.1,348.2 383.1,348.2 385.1,334.5 384.8,324.7 383.9,316.1 382.5,308.2 380.8,301.0 378.7,294.4 376.3,288.2 373.7,282.6 370.8,277.3 367.6,272.6 364.3,268.2 360.6,264.2 356.8,260.6 352.8,257.4 348.5,254.5 344.1,251.9 339.5,249.7 334.7,247.8 329.7,246.1 324.6,244.7 319.3,243.6 313.9,242.7 308.4,242.1 302.7,241.6 297.0,241.4 291.1,241.3 285.1,241.5 278.9,242.0 272.4,242.9 264.9,245.8" fill="url(#copper)" stroke="rgb(128, 72, 36)" stroke-width="6"/>
  <circle cx="256" cy="241" r="44" fill="url(#hub)"
          stroke="rgb(140, 104, 44)" stroke-width="8"/>
  <circle cx="256" cy="241" r="17" fill="rgb(140, 104, 44)"/>
</svg>
